# xmcd
#
# Track frame offsets:
#	150
#	12056
#	26106
#	45387
#	63448
#	78969
#	96508
#	111673
#	126731
#	143811
#
# Disc length: 2098 seconds
#
# Revision: 0
# Processed by: cddbd v1.4PL0 Copyright (c) Steve Scherf et al.
# Submitted via: dBpowerAMP V4.0
#
DISCID=8c08300a
DTITLE=Shylo - Land to Sky
DYEAR=2001
DGENRE=Country
TTITLE0=I Buried Your Memory
TTITLE1=The Last One
TTITLE2=You Don't Know
TTITLE3=Land to Sky
TTITLE4=Can't Push A River
TTITLE5=Mama's Little Girl
TTITLE6=Southern Girl
TTITLE7=Under The Rainbow
TTITLE8=Can't Love Without You
TTITLE9=Travlin' Light
EXTD=
EXTT0=
EXTT1=
EXTT2=
EXTT3=
EXTT4=
EXTT5=
EXTT6=
EXTT7=
EXTT8=
EXTT9=
PLAYORDER=
